<svg width="24" height="24" viewBox="0 0 24 24" fill="none" xmlns="http://www.w3.org/2000/svg">
<path fill-rule="evenodd" clip-rule="evenodd" d="M6 4H16C16.5523 4 17 4.44772 17 5V7H18V5C18 3.89543 17.1046 3 16 3H6C4.89543 3 4 3.89543 4 5V19C4 20.1046 4.89543 21 6 21H11V20H6C5.44772 20 5 19.5523 5 19V5C5 4.44772 5.44772 4 6 4Z" fill="#97BDC3"/>
<path d="M18 8.5H14C13.1716 8.5 12.5 9.17157 12.5 10V19C12.5 19.8284 13.1716 20.5 14 20.5H18C18.8284 20.5 19.5 19.8284 19.5 19V10C19.5 9.17157 18.8284 8.5 18 8.5Z" stroke="#97BDC3"/>
<path d="M16.75 10H15.25C14.9739 10 14.75 10.2239 14.75 10.5C14.75 10.7761 14.9739 11 15.25 11H16.75C17.0261 11 17.25 10.7761 17.25 10.5C17.25 10.2239 17.0261 10 16.75 10Z" fill="#97BDC3"/>
</svg>
