<svg width="24" height="24" viewBox="0 0 24 24" fill="none" xmlns="http://www.w3.org/2000/svg">
<path d="M5.5 6.5H18.5C19.0523 6.5 19.5 6.94772 19.5 7.5V17C19.5 17.2761 19.2761 17.5 19 17.5H5C4.72386 17.5 4.5 17.2761 4.5 17V7.5C4.5 6.94772 4.94772 6.5 5.5 6.5Z" stroke="#97BDC3"/>
<path d="M21.5 17H2.5C2.22386 17 2 17.2239 2 17.5C2 17.7761 2.22386 18 2.5 18H21.5C21.7761 18 22 17.7761 22 17.5C22 17.2239 21.7761 17 21.5 17Z" fill="#97BDC3"/>
<path d="M10.5 7H13.5V7.5C13.5 7.77614 13.2761 8 13 8H11C10.7239 8 10.5 7.77614 10.5 7.5V7Z" fill="#97BDC3"/>
</svg>
